<mxfile host="app.diagrams.net" modified="2021-07-26T11:59:16.095Z" agent="5.0 (Macintosh; Intel Mac OS X 10_15_7) AppleWebKit/537.36 (KHTML, like Gecko) Chrome/92.0.4515.107 Safari/537.36" etag="GXbhP4t67sXNTMcbgRNI" version="14.9.2" type="github">
  <diagram id="R2lEEEUBdFMjLlhIrx00" name="Page-1">
    <mxGraphModel dx="946" dy="589" grid="1" gridSize="10" guides="1" tooltips="1" connect="1" arrows="1" fold="1" page="1" pageScale="1" pageWidth="850" pageHeight="1100" math="0" shadow="0" extFonts="Permanent Marker^https://fonts.googleapis.com/css?family=Permanent+Marker">
      <root>
        <mxCell id="0" />
        <mxCell id="1" parent="0" />
        <UserObject label="RC SDK" treeRoot="1" id="rWngDkLnwP5_pyK8t7FR-1">
          <mxCell style="whiteSpace=wrap;html=1;align=center;treeFolding=1;treeMoving=1;newEdgeStyle={&quot;edgeStyle&quot;:&quot;elbowEdgeStyle&quot;,&quot;startArrow&quot;:&quot;none&quot;,&quot;endArrow&quot;:&quot;none&quot;};" vertex="1" parent="1">
            <mxGeometry x="100" y="350" width="120" height="40" as="geometry" />
          </mxCell>
        </UserObject>
        <UserObject label="RTM Edge" treeRoot="1" id="rWngDkLnwP5_pyK8t7FR-2">
          <mxCell style="whiteSpace=wrap;html=1;align=center;treeFolding=1;treeMoving=1;newEdgeStyle={&quot;edgeStyle&quot;:&quot;elbowEdgeStyle&quot;,&quot;startArrow&quot;:&quot;none&quot;,&quot;endArrow&quot;:&quot;none&quot;};" vertex="1" parent="1">
            <mxGeometry x="330" y="350" width="120" height="40" as="geometry" />
          </mxCell>
        </UserObject>
        <UserObject label="Peer RC SDK" treeRoot="1" id="rWngDkLnwP5_pyK8t7FR-3">
          <mxCell style="whiteSpace=wrap;html=1;align=center;treeFolding=1;treeMoving=1;newEdgeStyle={&quot;edgeStyle&quot;:&quot;elbowEdgeStyle&quot;,&quot;startArrow&quot;:&quot;none&quot;,&quot;endArrow&quot;:&quot;none&quot;};" vertex="1" parent="1">
            <mxGeometry x="550" y="350" width="120" height="40" as="geometry" />
          </mxCell>
        </UserObject>
        <mxCell id="rWngDkLnwP5_pyK8t7FR-4" value="" style="endArrow=none;html=1;entryX=0.5;entryY=1;entryDx=0;entryDy=0;" edge="1" parent="1" target="rWngDkLnwP5_pyK8t7FR-1">
          <mxGeometry width="50" height="50" relative="1" as="geometry">
            <mxPoint x="160" y="860" as="sourcePoint" />
            <mxPoint x="450" y="590" as="targetPoint" />
          </mxGeometry>
        </mxCell>
        <mxCell id="rWngDkLnwP5_pyK8t7FR-5" value="" style="endArrow=none;html=1;startArrow=none;" edge="1" parent="1" source="rWngDkLnwP5_pyK8t7FR-14" target="rWngDkLnwP5_pyK8t7FR-2">
          <mxGeometry width="50" height="50" relative="1" as="geometry">
            <mxPoint x="389.5" y="860" as="sourcePoint" />
            <mxPoint x="389.5" y="390" as="targetPoint" />
          </mxGeometry>
        </mxCell>
        <mxCell id="rWngDkLnwP5_pyK8t7FR-6" value="" style="endArrow=none;html=1;entryX=0.5;entryY=1;entryDx=0;entryDy=0;" edge="1" parent="1" target="rWngDkLnwP5_pyK8t7FR-3">
          <mxGeometry width="50" height="50" relative="1" as="geometry">
            <mxPoint x="609.5" y="890" as="sourcePoint" />
            <mxPoint x="609.5" y="420" as="targetPoint" />
          </mxGeometry>
        </mxCell>
        <mxCell id="rWngDkLnwP5_pyK8t7FR-7" value="" style="endArrow=classic;html=1;" edge="1" parent="1">
          <mxGeometry width="50" height="50" relative="1" as="geometry">
            <mxPoint x="160" y="430" as="sourcePoint" />
            <mxPoint x="390" y="430" as="targetPoint" />
          </mxGeometry>
        </mxCell>
        <mxCell id="rWngDkLnwP5_pyK8t7FR-8" value="1. Login" style="text;html=1;strokeColor=none;fillColor=none;align=center;verticalAlign=middle;whiteSpace=wrap;rounded=0;" vertex="1" parent="1">
          <mxGeometry x="240" y="410" width="60" height="20" as="geometry" />
        </mxCell>
        <mxCell id="rWngDkLnwP5_pyK8t7FR-9" value="" style="endArrow=classic;html=1;dashed=1;" edge="1" parent="1">
          <mxGeometry width="50" height="50" relative="1" as="geometry">
            <mxPoint x="390" y="460" as="sourcePoint" />
            <mxPoint x="160" y="460" as="targetPoint" />
          </mxGeometry>
        </mxCell>
        <mxCell id="rWngDkLnwP5_pyK8t7FR-10" value="2. Login Result" style="text;html=1;strokeColor=none;fillColor=none;align=center;verticalAlign=middle;whiteSpace=wrap;rounded=0;" vertex="1" parent="1">
          <mxGeometry x="239" y="439" width="101" height="20" as="geometry" />
        </mxCell>
        <mxCell id="rWngDkLnwP5_pyK8t7FR-11" value="" style="endArrow=classic;html=1;" edge="1" parent="1">
          <mxGeometry width="50" height="50" relative="1" as="geometry">
            <mxPoint x="160" y="510" as="sourcePoint" />
            <mxPoint x="610" y="510" as="targetPoint" />
          </mxGeometry>
        </mxCell>
        <mxCell id="rWngDkLnwP5_pyK8t7FR-12" value="3. Req Control" style="text;html=1;strokeColor=none;fillColor=none;align=center;verticalAlign=middle;whiteSpace=wrap;rounded=0;" vertex="1" parent="1">
          <mxGeometry x="340" y="490" width="100" height="20" as="geometry" />
        </mxCell>
        <mxCell id="rWngDkLnwP5_pyK8t7FR-13" value="" style="endArrow=classic;html=1;dashed=1;" edge="1" parent="1">
          <mxGeometry width="50" height="50" relative="1" as="geometry">
            <mxPoint x="610" y="541" as="sourcePoint" />
            <mxPoint x="160" y="541" as="targetPoint" />
          </mxGeometry>
        </mxCell>
        <mxCell id="rWngDkLnwP5_pyK8t7FR-14" value="4. Answer Req" style="text;html=1;strokeColor=none;fillColor=none;align=center;verticalAlign=middle;whiteSpace=wrap;rounded=0;" vertex="1" parent="1">
          <mxGeometry x="340" y="520" width="101" height="20" as="geometry" />
        </mxCell>
        <mxCell id="rWngDkLnwP5_pyK8t7FR-15" value="" style="endArrow=none;html=1;" edge="1" parent="1" target="rWngDkLnwP5_pyK8t7FR-14">
          <mxGeometry width="50" height="50" relative="1" as="geometry">
            <mxPoint x="389.5" y="860" as="sourcePoint" />
            <mxPoint x="389.9795918367347" y="390" as="targetPoint" />
          </mxGeometry>
        </mxCell>
        <mxCell id="rWngDkLnwP5_pyK8t7FR-16" value="" style="endArrow=classic;html=1;" edge="1" parent="1">
          <mxGeometry width="50" height="50" relative="1" as="geometry">
            <mxPoint x="160" y="580" as="sourcePoint" />
            <mxPoint x="610" y="580" as="targetPoint" />
          </mxGeometry>
        </mxCell>
        <mxCell id="rWngDkLnwP5_pyK8t7FR-17" value="5. Mouse &amp;amp; Keyboard Instructions" style="text;html=1;strokeColor=none;fillColor=none;align=center;verticalAlign=middle;whiteSpace=wrap;rounded=0;" vertex="1" parent="1">
          <mxGeometry x="290.5" y="560" width="200" height="20" as="geometry" />
        </mxCell>
        <mxCell id="rWngDkLnwP5_pyK8t7FR-18" value="" style="endArrow=classic;html=1;dashed=1;" edge="1" parent="1">
          <mxGeometry width="50" height="50" relative="1" as="geometry">
            <mxPoint x="610" y="791" as="sourcePoint" />
            <mxPoint x="160" y="791" as="targetPoint" />
          </mxGeometry>
        </mxCell>
        <mxCell id="rWngDkLnwP5_pyK8t7FR-19" value="7. Answer Quit Req" style="text;html=1;strokeColor=none;fillColor=none;align=center;verticalAlign=middle;whiteSpace=wrap;rounded=0;" vertex="1" parent="1">
          <mxGeometry x="330" y="770" width="170" height="20" as="geometry" />
        </mxCell>
        <mxCell id="rWngDkLnwP5_pyK8t7FR-20" value="Ping" style="text;html=1;strokeColor=none;fillColor=none;align=center;verticalAlign=middle;whiteSpace=wrap;rounded=0;" vertex="1" parent="1">
          <mxGeometry x="290.5" y="600" width="200" height="20" as="geometry" />
        </mxCell>
        <mxCell id="rWngDkLnwP5_pyK8t7FR-21" value="" style="endArrow=classic;html=1;" edge="1" parent="1">
          <mxGeometry width="50" height="50" relative="1" as="geometry">
            <mxPoint x="160" y="630" as="sourcePoint" />
            <mxPoint x="610" y="630" as="targetPoint" />
          </mxGeometry>
        </mxCell>
        <mxCell id="rWngDkLnwP5_pyK8t7FR-22" value="" style="endArrow=classic;html=1;dashed=1;" edge="1" parent="1">
          <mxGeometry width="50" height="50" relative="1" as="geometry">
            <mxPoint x="610" y="660" as="sourcePoint" />
            <mxPoint x="160" y="660" as="targetPoint" />
          </mxGeometry>
        </mxCell>
        <mxCell id="rWngDkLnwP5_pyK8t7FR-23" value="Pong" style="text;html=1;strokeColor=none;fillColor=none;align=center;verticalAlign=middle;whiteSpace=wrap;rounded=0;" vertex="1" parent="1">
          <mxGeometry x="310" y="640" width="200" height="20" as="geometry" />
        </mxCell>
        <mxCell id="rWngDkLnwP5_pyK8t7FR-24" value="" style="endArrow=classic;html=1;" edge="1" parent="1">
          <mxGeometry width="50" height="50" relative="1" as="geometry">
            <mxPoint x="160" y="760" as="sourcePoint" />
            <mxPoint x="610" y="760" as="targetPoint" />
          </mxGeometry>
        </mxCell>
        <mxCell id="rWngDkLnwP5_pyK8t7FR-25" value="6. Quit Request" style="text;html=1;strokeColor=none;fillColor=none;align=center;verticalAlign=middle;whiteSpace=wrap;rounded=0;" vertex="1" parent="1">
          <mxGeometry x="290.5" y="740" width="200" height="20" as="geometry" />
        </mxCell>
      </root>
    </mxGraphModel>
  </diagram>
</mxfile>
